<?xml version="1.0" encoding="UTF-8"?>
<svg width="35px" height="39px" viewBox="0 0 35 39" version="1.1" xmlns="http://www.w3.org/2000/svg" xmlns:xlink="http://www.w3.org/1999/xlink">
    <!-- Generator: Sketch 46.1 (44463) - http://www.bohemiancoding.com/sketch -->
    <title>Group 2</title>
    <desc>Created with Sketch.</desc>
    <defs>
        <linearGradient x1="50%" y1="0%" x2="123.840332%" y2="138.832895%" id="linearGradient-1">
            <stop stop-color="#F40AE3" offset="0%"></stop>
            <stop stop-color="#F9C55A" offset="100%"></stop>
        </linearGradient>
    </defs>
    <g id="Page-2" stroke="none" stroke-width="1" fill="none" fill-rule="evenodd">
        <g id="mobile" transform="translate(-27.000000, -19.000000)">
            <g id="Group-2" transform="translate(27.000000, 19.000000)">
                <g id="Group">
                    <polygon id="Rectangle" fill="#F900C3" points="2 4 8 0 14 4 14 39 2 39"></polygon>
                    <polygon id="Rectangle" fill="url(#linearGradient-1)" points="23 4 29 0 35 4 35 39 23 39"></polygon>
                    <path d="M21,25 L9,25 L9,18 L21,18 L21,4 L30,4 L30,39 L21,39 L21,25 Z M0,4 L9,4 L9,39 L0,39 L0,4 Z" id="Combined-Shape" fill="#FFFFFF"></path>
                    <polygon id="Rectangle" fill="#00FFF9" opacity="0.5" points="0 4 5 4 5 39 0 39"></polygon>
                    <polygon id="Rectangle" fill="#00FFF9" opacity="0.5" points="21 25 26 25 26 39 21 39"></polygon>
                    <polygon id="Rectangle" fill="#00FFF9" opacity="0.5" points="21 4 26 4 26 18 21 18"></polygon>
                </g>
            </g>
        </g>
    </g>
</svg>