<?xml version="1.0" encoding="UTF-8"?>
<svg width="499px" height="245px" viewBox="0 0 499 245" version="1.1" xmlns="http://www.w3.org/2000/svg" xmlns:xlink="http://www.w3.org/1999/xlink">
    <!-- Generator: Sketch 46.1 (44463) - http://www.bohemiancoding.com/sketch -->
    <title>Group Copy 3</title>
    <desc>Created with Sketch.</desc>
    <defs>
        <linearGradient x1="0%" y1="57.6407727%" x2="40.6567528%" y2="63.3089576%" id="linearGradient-1">
            <stop stop-color="#FFB92F" offset="0%"></stop>
            <stop stop-color="#DE06FF" offset="100%"></stop>
        </linearGradient>
        <linearGradient x1="2.96590832%" y1="17.2334083%" x2="43.9247493%" y2="79.3375774%" id="linearGradient-2">
            <stop stop-color="#FFF52F" offset="0%"></stop>
            <stop stop-color="#DE06FF" offset="100%"></stop>
        </linearGradient>
        <path d="M54.6386045,12.1085627 L48.0428014,2.40264069 L48.0428014,2.40264069 C46.8011242,0.575475446 44.3133358,0.100843619 42.4861706,1.34252083 C41.9676312,1.69490192 41.5391827,2.16423663 41.2353924,2.71265886 L32.4568607,18.5602423 C17.6156671,27.5523781 0.323511841,44.8817246 0.323511841,54.9020585 C0.323511841,64.1037725 12.6751257,85.8076259 31.6583281,99.9320038 C50.6415306,114.056382 55.8098171,117.12495 66.5805874,117.12495 L308.723298,142.439478 C375.703277,115.857981 400.51229,102.567233 383.150338,102.567233 C307.394404,153.264633 294.484958,82.6087047 240.77043,77.1622077 C196.625036,72.685993 138.296659,72.5096521 104.100975,33.1516952 C102.408336,31.2035308 96.6193912,23.5515673 90.4613282,13.8392352 C88.1647208,10.2170876 86.0604034,6.57863814 84.1483759,2.92388695 L84.1483758,2.92388702 C83.1243144,0.966441498 80.7073254,0.209784168 78.7498799,1.23384558 C78.2382688,1.50150116 77.7906678,1.87674502 77.4378328,2.33379311 L70.2196089,11.6839872 C62.7439691,11.350333 57.5503009,11.4918582 54.6386045,12.1085627 Z" id="path-3"></path>
    </defs>
    <g id="Page-2" stroke="none" stroke-width="1" fill="none" fill-rule="evenodd">
        <g id="home" transform="translate(-319.000000, -398.000000)">
            <g id="Group-Copy-+-Group-11-Mask">
                <g id="Group-11" transform="translate(305.000000, 83.000000)">
                    <g id="Group-Copy-3" transform="translate(14.000000, 313.000000)">
                        <path d="M12.2555211,221.272999 C12.6756214,221.618412 13.1141155,221.945676 13.5702546,222.253153 C13.3454063,222.898771 13.2232067,223.59249 13.2232067,224.314757 C13.2232067,227.774758 16.0275268,230.579644 19.4868309,230.579644 C22.6917503,230.579644 25.3344741,228.172113 25.7058159,225.066582 C26.2803543,224.986127 26.8491521,224.877103 27.4101377,224.740456 C28.1890454,227.313929 30.578773,229.187447 33.4059959,229.187447 C36.8653,229.187447 39.6696201,226.382561 39.6696201,222.92256 C39.6696201,220.969247 38.7758651,219.224724 37.3750699,218.075784 C38.2857515,216.823935 39.0432607,215.428768 39.6105523,213.907209 C52.2260405,180.070619 82.7547577,161.993249 127.972755,157.019439 C162.249431,153.249133 202.186992,157.718325 232.977173,165.922259 C242.262514,168.396304 251.795029,162.873128 254.268642,153.585899 C256.742255,144.29867 251.220258,134.764273 241.934917,132.290227 C227.598236,128.47027 209.841651,125.098354 191.516992,123.047742 C168.369025,120.457381 145.554887,120.070734 124.169061,122.423094 C98.2187374,125.277532 75.1521494,132.069181 55.85147,143.497946 C33.2189753,156.899623 16.4937988,176.298455 7.00591997,201.746338 C5.57809372,205.575977 5.58520757,209.589581 6.75747063,213.196366 C6.59452609,213.183655 6.42983116,213.17718 6.26362423,213.17718 C2.80432009,213.17718 0,215.982065 0,219.442067 C0,222.902068 2.80432009,225.706954 6.26362423,225.706954 C9.08607097,225.706954 11.4724994,223.839761 12.2555211,221.272999 Z" id="Combined-Shape" fill="url(#linearGradient-1)" fill-rule="nonzero" opacity="0.4"></path>
                        <path d="M453.248423,48.5749628 C453.004609,47.6443258 452.683787,46.7327236 452.287877,45.8506048 C454.396253,44.8421839 455.852652,42.6889514 455.852652,40.1954901 C455.852652,36.7354886 453.048332,33.9306032 449.589028,33.9306032 C447.160399,33.9306032 445.054601,35.313087 444.015375,37.3341637 C442.981563,36.8308214 441.915053,36.4385561 440.831417,36.154507 C441.093849,35.4633914 441.237529,34.7137797 441.237529,33.9306032 C441.237529,30.4706017 438.433209,27.6657163 434.973905,27.6657163 C431.5146,27.6657163 428.71028,30.4706017 428.71028,33.9306032 C428.71028,35.0514773 429.004579,36.1036003 429.520106,37.0138864 C426.618062,38.2639585 424.021237,40.3194421 422.095209,43.1131654 C401.767258,72.5990707 384.629172,87.8068122 359.048328,97.2405437 C329.498438,108.137984 286.852948,111.359452 220.024436,107.076362 C210.434824,106.461756 202.163303,113.738874 201.549475,123.33026 C200.935647,132.921645 208.211957,141.195235 217.801568,141.809841 C289.055931,146.376587 336.020203,142.828876 371.088549,129.896334 C404.279117,117.65628 426.676134,97.7819461 450.743409,62.8721121 C452.009217,61.0360447 452.874056,59.0424572 453.356997,56.9951465 C454.500465,58.222563 456.130874,58.990151 457.940527,58.990151 C461.399831,58.990151 464.204151,56.1852656 464.204151,52.725264 C464.204151,49.2652625 461.399831,46.4603771 457.940527,46.4603771 C456.072799,46.4603771 454.396003,47.2780224 453.248423,48.5749628 Z" id="Combined-Shape" fill="url(#linearGradient-1)" fill-rule="nonzero" opacity="0.4"></path>
                        <path d="M268.594956,118.912203 C300.91155,123.768207 325.16792,121.557268 344.573576,112.615422 C353.130619,108.67246 360.623569,103.499937 367.751468,96.9221082 C373.171263,91.9205665 377.685984,86.8951141 384.602245,78.5366358 C385.044321,78.0023756 385.496159,77.4550517 386.089373,76.7355503 C386.104004,76.7178045 387.238291,75.3416807 387.563743,74.9471391 C388.754765,73.5032771 389.628022,72.4494363 390.490592,71.417336 C403.55721,55.7826002 413.037895,47.4485283 427.163932,40.9745938 C433.713546,37.9729188 436.589179,30.2312473 433.586838,23.6830865 C430.584497,17.1349257 422.841107,14.2599309 416.291493,17.2616059 C397.942937,25.6707127 385.804984,36.3406769 370.46848,54.6914239 C369.563318,55.7744866 368.658078,56.8669235 367.43454,58.3502045 C367.105431,58.7491795 365.96805,60.1290561 365.956146,60.1434946 C365.371879,60.8521452 364.928962,61.3886619 364.498405,61.9090021 C351.91219,77.1197649 344.572573,83.892973 333.65244,88.9248124 C319.344629,95.5176449 300.117321,97.2701908 272.472868,93.1162391 C265.347929,92.0456209 258.703924,96.9523365 257.633068,104.075695 C256.562212,111.199054 261.470017,117.841585 268.594956,118.912203 Z" id="Path-3-Copy" fill="#DD06FF" fill-rule="nonzero" transform="translate(346.131506, 68.750334) rotate(-11.000000) translate(-346.131506, -68.750334) "></path>
                        <g id="Oval-5-Copy" transform="translate(237.234937, 106.654792) rotate(-7.000000) translate(-237.234937, -106.654792) translate(42.734937, 35.154792)">
                            <mask id="mask-4" fill="white">
                                <use xlink:href="#path-3"></use>
                            </mask>
                            <use id="Combined-Shape" fill="url(#linearGradient-2)" xlink:href="#path-3"></use>
                            <ellipse id="Oval-5" fill="#000000" mask="url(#mask-4)" cx="54.3014834" cy="42.3354327" rx="5.21829596" ry="5.2171382"></ellipse>
                            <path d="M3.13699968,64.2182013 C7.54473525,60.6884081 9.74860303,57.7061035 9.74860303,55.2712876 C9.74860303,51.6190638 6.78848738,50.9923289 3.13699968,50.9923289 C-0.514488021,50.9923289 -3.47460367,51.6190638 -3.47460367,55.2712876 C-3.47460367,57.7061035 -1.27073589,60.6884081 3.13699968,64.2182013 Z" fill="#000000" mask="url(#mask-4)"></path>
                        </g>
                        <path d="M489.4491,98.0846347 C488.867383,101.108498 487.475784,104.016104 485.257421,106.464652 C437.392767,159.295887 396.797704,190.41885 349.390628,196.725685 C334.310391,198.731895 318.643308,199.015876 299.174504,197.989477 C287.638634,197.381304 241.874896,193.647709 245.433542,193.914282 C231.257502,192.852376 219.052578,192.170747 206.705901,191.82585 C136.588119,189.867147 98.8368698,198.324094 88.9640007,227.993026 C88.3674012,229.785866 87.5073184,231.416846 86.4411296,232.857243 C89.1587345,233.541629 91.1705304,236.00224 91.1705304,238.932826 C91.1705304,242.392828 88.3662103,245.197713 84.9069062,245.197713 C81.447602,245.197713 78.6432819,242.392828 78.6432819,238.932826 C78.6432819,238.875402 78.6440544,238.818159 78.6455894,238.761105 C78.1585886,238.946827 77.6628759,239.110926 77.1599607,239.252647 C77.2200518,239.6011 77.2513654,239.959404 77.2513654,240.325023 C77.2513654,243.785025 74.4470454,246.58991 70.9877412,246.58991 C67.5284371,246.58991 64.724117,243.785025 64.724117,240.325023 C64.724117,239.600131 64.8472068,238.903993 65.0736216,238.25638 C64.4688233,237.973883 63.8865819,237.659604 63.3282585,237.316262 C63.3308792,237.390728 63.3322005,237.465524 63.3322005,237.540629 C63.3322005,241.000631 60.5278804,243.805516 57.0685763,243.805516 C53.6092721,243.805516 50.804952,241.000631 50.804952,237.540629 C50.804952,234.080628 53.6092721,231.275742 57.0685763,231.275742 C57.1930121,231.275742 57.3166004,231.279372 57.4392412,231.28653 C54.9988272,227.112482 54.3000006,221.948063 55.9466062,216.999853 C64.0955237,192.511564 82.3048839,174.509604 109.252604,163.503887 C134.258228,153.291341 167.006618,148.93766 207.675019,150.073709 C220.624473,150.435445 233.351651,151.146241 248.030069,152.245779 C244.965421,152.016211 290.054727,155.694783 301.003795,156.27202 C318.504584,157.194665 332.145005,156.947419 344.800207,155.263825 C383.3116,150.140433 416.766402,130.228382 459.470751,83.0928998 C461.526128,80.8242507 464.043306,79.2233477 466.749681,78.3036034 C465.205539,77.1626113 464.204151,75.3289584 464.204151,73.2613715 C464.204151,69.80137 467.008471,66.9964846 470.467775,66.9964846 C473.927079,66.9964846 476.731399,69.80137 476.731399,73.2613715 C476.731399,74.9338444 476.07617,76.4532495 475.008458,77.5767915 C476.326005,77.7782406 477.62638,78.1317774 478.881637,78.638777 C479.312592,75.5990718 481.9248,73.2613715 485.082898,73.2613715 C488.542202,73.2613715 491.346523,76.066257 491.346523,79.5262585 C491.346523,82.2919008 489.554815,84.6389831 487.06905,85.4696352 C487.61751,86.3351963 488.082865,87.2399914 488.464534,88.1722324 C489.583717,87.1269573 491.086386,86.487244 492.738439,86.487244 C496.197743,86.487244 499.002063,89.2921294 499.002063,92.7521309 C499.002063,96.2121324 496.197743,99.0170179 492.738439,99.0170179 C491.531922,99.0170179 490.405079,98.6758213 489.4491,98.0846347 Z" id="Combined-Shape" fill="url(#linearGradient-1)" fill-rule="nonzero"></path>
                    </g>
                </g>
            </g>
        </g>
    </g>
</svg>