<?xml version="1.0" encoding="UTF-8"?>
<svg width="506px" height="245px" viewBox="0 0 506 245" version="1.1" xmlns="http://www.w3.org/2000/svg" xmlns:xlink="http://www.w3.org/1999/xlink">
    <!-- Generator: Sketch 46.1 (44463) - http://www.bohemiancoding.com/sketch -->
    <title>Group Copy 2</title>
    <desc>Created with Sketch.</desc>
    <defs>
        <linearGradient x1="-7.86104565%" y1="-17.6931164%" x2="33.2494129%" y2="68.435955%" id="linearGradient-1">
            <stop stop-color="#FFA62C" offset="0%"></stop>
            <stop stop-color="#FFDC06" offset="100%"></stop>
        </linearGradient>
        <path d="M119.75,12.6041141 L112.330237,2.46295043 L112.330237,2.46295043 C111.025787,0.680057994 108.523001,0.292203723 106.740109,1.59665367 C106.272031,1.93912162 105.884027,2.37928336 105.602991,2.8866287 L96.7050232,18.9498255 C81.8638297,27.9419613 64.5716744,45.2713078 64.5716744,55.2916417 C64.5716744,64.4933557 76.9232882,86.1972091 95.9064907,100.321587 C114.889693,114.445965 120.05798,117.514533 130.82875,117.514533 L372.971461,142.829061 C439.95144,116.247565 464.760453,102.956817 447.3985,102.956817 C371.642567,153.654216 358.73312,82.9982879 305.018593,77.5517909 C260.873198,73.0755762 202.544821,72.8992353 168.349138,33.5412784 C166.656499,31.593114 160.867554,23.9411505 154.709491,14.2288184 C152.412883,10.6066708 150.308566,6.96822132 148.396538,3.31347014 L148.396538,3.31347021 C147.372477,1.35602468 144.955488,0.599367351 142.998042,1.62342876 C142.486431,1.89108434 142.03883,2.2663282 141.685995,2.72337629 L134.467771,12.0735704 C128.022824,11.8664413 123.116901,12.0432892 119.75,12.6041141 Z" id="path-2"></path>
    </defs>
    <g id="Page-2" stroke="none" stroke-width="1" fill="none" fill-rule="evenodd">
        <g id="home" transform="translate(-327.000000, -85.000000)">
            <g id="Group-Copy-+-Group-11-Mask">
                <g id="Group-11" transform="translate(305.000000, 83.000000)">
                    <g id="Group-Copy-2">
                        <path d="M481.525545,43.8756974 C481.281732,42.9450605 480.96091,42.0334583 480.565,41.1513394 C482.673376,40.1429185 484.129775,37.989686 484.129775,35.4962248 C484.129775,32.0362233 481.325454,29.2313378 477.86615,29.2313378 C475.437521,29.2313378 473.331723,30.6138217 472.292498,32.6348984 C471.258686,32.131556 470.192176,31.7392908 469.108539,31.4552416 C469.370972,30.764126 469.514651,30.0145144 469.514651,29.2313378 C469.514651,25.7713363 466.710331,22.9664509 463.251027,22.9664509 C459.791723,22.9664509 456.987403,25.7713363 456.987403,29.2313378 C456.987403,30.3522119 457.281702,31.404335 457.797229,32.3146211 C454.895185,33.5646931 452.29836,35.6201767 450.372332,38.4139001 C430.044381,67.8998053 412.906295,83.1075468 387.32545,92.5412783 C357.77556,103.438719 315.13007,106.660186 248.301558,102.377096 C238.711947,101.762491 230.440425,109.039609 229.826597,118.630994 C229.212769,128.22238 236.489079,136.49597 246.078691,137.110576 C317.333054,141.677322 364.297326,138.129611 399.365671,125.197068 C432.55624,112.957015 454.953256,93.0826807 479.020532,58.1728467 C480.28634,56.3367793 481.151178,54.3431918 481.634119,52.2958811 C482.777587,53.5232976 484.407996,54.2908856 486.217649,54.2908856 C489.676953,54.2908856 492.481274,51.4860002 492.481274,48.0259987 C492.481274,44.5659972 489.676953,41.7611117 486.217649,41.7611117 C484.349921,41.7611117 482.673126,42.5787571 481.525545,43.8756974 Z" id="Combined-Shape" fill-opacity="0.4" fill="url(#linearGradient-1)" fill-rule="nonzero"></path>
                        <path d="M282.847003,116.617298 C315.163596,121.473302 339.419966,119.262363 358.825623,110.320517 C367.382665,106.377555 374.875616,101.205032 382.003515,94.6272031 C387.423309,89.6256614 391.938031,84.600209 398.854292,76.2417307 C399.296368,75.7074705 399.748206,75.1601466 400.341419,74.4406452 C400.35605,74.4228994 401.490338,73.0467756 401.81579,72.652234 C403.006811,71.208372 403.880069,70.1545311 404.742639,69.1224309 C417.809257,53.487695 427.289942,45.1536232 441.415979,38.6796887 C447.965593,35.6780137 450.841226,27.9363422 447.838884,21.3881814 C444.836543,14.8400206 437.093154,11.9650258 430.54354,14.9667008 C412.194984,23.3758076 400.057031,34.0457718 384.720526,52.3965188 C383.815364,53.4795815 382.910125,54.5720184 381.686587,56.0552994 C381.357478,56.4542744 380.220097,57.834151 380.208193,57.8485895 C379.623925,58.5572401 379.181009,59.0937568 378.750451,59.614097 C366.164236,74.8248598 358.82462,81.5980679 347.904487,86.6299072 C333.596676,93.2227397 314.369367,94.9752857 286.724915,90.821334 C279.599975,89.7507158 272.955971,94.6574314 271.885115,101.78079 C270.814259,108.904149 275.722064,115.54668 282.847003,116.617298 Z" id="Path-3-Copy" fill="#FFDD06" fill-rule="nonzero" transform="translate(360.383553, 66.455429) rotate(-9.000000) translate(-360.383553, -66.455429) "></path>
                        <g id="Oval-5-Copy" transform="translate(236.614462, 128.310646) rotate(-7.000000) translate(-236.614462, -128.310646) translate(10.114462, 33.310646)">
                            <path d="M12.8555011,179.589827 C13.2753306,179.940413 13.713534,180.272571 14.1693642,180.584638 C13.9520215,181.230893 13.8340803,181.923988 13.8340803,182.645084 C13.8340803,186.161284 16.6384003,189.011728 20.0977045,189.011728 C23.2932206,189.011728 25.9298353,186.579429 26.3133623,183.436881 C26.8914494,183.354046 27.4637176,183.24182 28.0280558,183.101185 C28.8142428,185.704362 31.1981174,187.596918 34.0168694,187.596918 C37.4761736,187.596918 40.2804937,184.746475 40.2804937,181.230274 C40.2804937,179.246916 39.3882521,177.47538 37.9895019,176.307742 C38.8931607,175.041278 39.6453189,173.631078 40.209597,172.094043 C52.8347379,137.704451 83.3687298,119.324894 128.588361,114.257506 C162.866275,110.416264 202.802767,114.946706 233.590774,123.275125 C242.87546,125.786711 252.409588,120.17115 254.885845,110.732417 C257.362103,101.293685 251.842781,91.6060366 242.558095,89.0944499 C228.222426,85.2165293 210.466708,81.7948938 192.14254,79.716179 C168.995194,77.0903172 146.181051,76.7038581 124.794453,79.1004767 C98.8431923,82.0086191 75.7745652,88.9170858 56.4705511,100.536897 C33.8341459,114.1626 17.1033886,133.881163 7.60825013,159.744948 C6.18409689,163.624196 6.1852838,167.688746 7.34487473,171.344286 C7.18958991,171.332568 7.03272904,171.326604 6.87449779,171.326604 C3.41519365,171.326604 0.610873565,174.177048 0.610873565,177.693249 C0.610873565,181.20945 3.41519365,184.059894 6.87449779,184.059894 C9.68397748,184.059894 12.061436,182.179768 12.8555011,179.589827 Z" id="Combined-Shape" fill-opacity="0.4" fill="url(#linearGradient-1)" fill-rule="nonzero"></path>
                            <mask id="mask-3" fill="white">
                                <use xlink:href="#path-2"></use>
                            </mask>
                            <use id="Combined-Shape" fill="url(#linearGradient-1)" xlink:href="#path-2"></use>
                            <path d="M89.8076843,99.0310439 C89.8076843,99.0310439 97.230218,94.196913 98.8870177,88.412583 C100.543817,82.628253 102.162135,78.5986462 99.2281259,75.8150855 C96.2941163,73.0315248 79.024303,81.9191263 79.024303,89.6080185 C79.024303,97.2969108 89.8076843,99.0310439 89.8076843,99.0310439 Z" id="Oval-5-Copy-2" fill="#FFFFFF" mask="url(#mask-3)" transform="translate(89.938533, 87.161955) rotate(13.000000) translate(-89.938533, -87.161955) "></path>
                            <ellipse id="Oval-5" fill="#000000" mask="url(#mask-3)" cx="120.274193" cy="42.6193824" rx="4.87170773" ry="4.87268985"></ellipse>
                            <path d="M67.1369997,64.2182013 C71.5447352,60.6884081 73.748603,57.7061035 73.748603,55.2712876 C73.748603,51.6190638 70.7884874,50.9923289 67.1369997,50.9923289 C63.485512,50.9923289 60.5253963,51.6190638 60.5253963,55.2712876 C60.5253963,57.7061035 62.7292641,60.6884081 67.1369997,64.2182013 Z" fill="#000000" mask="url(#mask-3)"></path>
                        </g>
                        <path d="M517.726222,92.5158463 C517.144506,95.5397096 515.752907,98.4473155 513.534543,100.895863 C465.66989,153.727099 425.074826,184.850061 377.667751,191.156896 C362.587514,193.163106 346.920431,193.447088 327.451627,192.420689 C315.915757,191.812516 270.152019,188.07892 273.710665,188.345493 C259.534625,187.283588 247.329701,186.601959 234.983023,186.257061 C164.865242,184.298359 127.113992,192.755306 117.241123,222.424238 C116.644524,224.217077 115.784441,225.848057 114.718252,227.288455 C117.435857,227.972841 119.447653,230.433452 119.447653,233.364038 C119.447653,236.824039 116.643333,239.628925 113.184029,239.628925 C109.724725,239.628925 106.920405,236.824039 106.920405,233.364038 C106.920405,233.306614 106.921177,233.24937 106.922712,233.192317 C106.435711,233.378039 105.939999,233.542138 105.437083,233.683859 C105.497174,234.032311 105.528488,234.390616 105.528488,234.756235 C105.528488,238.216237 102.724168,241.021122 99.2648639,241.021122 C95.8055597,241.021122 93.0012396,238.216237 93.0012396,234.756235 C93.0012396,234.031342 93.1243295,233.335205 93.3507442,232.687591 C92.745946,232.405094 92.1637045,232.090815 91.6053811,231.747474 C91.6080018,231.821939 91.6093231,231.896736 91.6093231,231.971841 C91.6093231,235.431842 88.8050031,238.236728 85.3456989,238.236728 C81.8863948,238.236728 79.0820747,235.431842 79.0820747,231.971841 C79.0820747,228.511839 81.8863948,225.706954 85.3456989,225.706954 C85.4701347,225.706954 85.5937231,225.710583 85.7163638,225.717742 C83.2759498,221.543693 82.5771232,216.379275 84.2237289,211.431065 C92.3726463,186.942775 110.582007,168.940816 137.529726,157.935099 C162.53535,147.722553 195.283741,143.368871 235.952142,144.504921 C248.901596,144.866657 261.628773,145.577453 276.307191,146.67699 C273.242544,146.447422 318.331849,150.125995 329.280918,150.703232 C346.781706,151.625876 360.422128,151.37863 373.07733,149.695036 C411.588723,144.571645 445.043524,124.659594 487.747873,77.5241114 C489.80325,75.2554623 492.320429,73.6545593 495.026804,72.734815 C493.482662,71.5938229 492.481274,69.76017 492.481274,67.6925832 C492.481274,64.2325816 495.285594,61.4276962 498.744898,61.4276962 C502.204202,61.4276962 505.008522,64.2325816 505.008522,67.6925832 C505.008522,69.365056 504.353293,70.8844611 503.285581,72.0080031 C504.603128,72.2094522 505.903503,72.562989 507.15876,73.0699886 C507.589714,70.0302834 510.201923,67.6925832 513.360021,67.6925832 C516.819325,67.6925832 519.623645,70.4974686 519.623645,73.9574701 C519.623645,76.7231124 517.831938,79.0701947 515.346173,79.9008468 C515.894633,80.7664079 516.359987,81.671203 516.741657,82.603444 C517.860839,81.558169 519.363509,80.9184556 521.015562,80.9184556 C524.474866,80.9184556 527.279186,83.723341 527.279186,87.1833425 C527.279186,90.6433441 524.474866,93.4482295 521.015562,93.4482295 C519.809044,93.4482295 518.682202,93.1070329 517.726222,92.5158463 Z" id="Combined-Shape" fill="url(#linearGradient-1)" fill-rule="nonzero"></path>
                    </g>
                </g>
            </g>
        </g>
    </g>
</svg>