<?xml version="1.0" encoding="UTF-8"?>
<svg width="500px" height="245px" viewBox="0 0 500 245" version="1.1" xmlns="http://www.w3.org/2000/svg" xmlns:xlink="http://www.w3.org/1999/xlink">
    <!-- Generator: Sketch 46.1 (44463) - http://www.bohemiancoding.com/sketch -->
    <title>Group</title>
    <desc>Created with Sketch.</desc>
    <defs>
        <linearGradient x1="0%" y1="0%" x2="101.999998%" y2="100.999999%" id="linearGradient-1">
            <stop stop-color="#FFCD2C" offset="0%"></stop>
            <stop stop-color="#FF0663" offset="100%"></stop>
        </linearGradient>
        <linearGradient x1="94.57338%" y1="10.8616623%" x2="30.6452096%" y2="117.098087%" id="linearGradient-2">
            <stop stop-color="#FFCD2C" offset="0%"></stop>
            <stop stop-color="#FF0663" offset="100%"></stop>
        </linearGradient>
        <linearGradient x1="5.10295423%" y1="7.37116028%" x2="33.5048161%" y2="91.3009069%" id="linearGradient-3">
            <stop stop-color="#FFCD2C" offset="0%"></stop>
            <stop stop-color="#FF0663" offset="100%"></stop>
        </linearGradient>
        <path d="M54.6386045,12.1085627 L48.0428014,2.40264069 L48.0428014,2.40264069 C46.8011242,0.575475446 44.3133358,0.100843619 42.4861706,1.34252083 C41.9676312,1.69490192 41.5391827,2.16423663 41.2353924,2.71265886 L32.4568607,18.5602423 C17.6156671,27.5523781 0.323511841,44.8817246 0.323511841,54.9020585 C0.323511841,64.1037725 12.6751257,85.8076259 31.6583281,99.9320038 C50.6415306,114.056382 55.8098171,117.12495 66.5805874,117.12495 L308.723298,142.439478 C375.703277,115.857981 400.51229,102.567233 383.150338,102.567233 C307.394404,153.264633 294.484958,82.6087047 240.77043,77.1622077 C196.625036,72.685993 138.296659,72.5096521 104.100975,33.1516952 C102.408336,31.2035308 96.6193912,23.5515673 90.4613282,13.8392352 C88.1647208,10.2170876 86.0604034,6.57863814 84.1483759,2.92388695 L84.1483758,2.92388702 C83.1243144,0.966441498 80.7073254,0.209784168 78.7498799,1.23384558 C78.2382688,1.50150116 77.7906678,1.87674502 77.4378328,2.33379311 L70.2196089,11.6839872 C62.7439691,11.350333 57.5503009,11.4918582 54.6386045,12.1085627 Z" id="path-4"></path>
        <linearGradient x1="0%" y1="104.347891%" x2="25.6534785%" y2="50%" id="linearGradient-6">
            <stop stop-color="#FFCD2C" offset="0%"></stop>
            <stop stop-color="#FF0663" offset="100%"></stop>
        </linearGradient>
    </defs>
    <g id="Page-2" stroke="none" stroke-width="1" fill="none" fill-rule="evenodd">
        <g id="home" transform="translate(-729.000000, -274.000000)">
            <g id="Group-Copy-+-Group-11-Mask">
                <g id="Group-11" transform="translate(305.000000, 83.000000)">
                    <g id="Group" transform="translate(424.000000, 189.000000)">
                        <path d="M12.5326438,231.272999 C12.952744,231.618412 13.3912381,231.945676 13.8473772,232.253153 C13.6225289,232.898771 13.5003293,233.59249 13.5003293,234.314757 C13.5003293,237.774758 16.3046494,240.579644 19.7639536,240.579644 C22.9688729,240.579644 25.6115967,238.172113 25.9829385,235.066582 C26.557477,234.986127 27.1262748,234.877103 27.6872603,234.740456 C28.466168,237.313929 30.8558957,239.187447 33.6831185,239.187447 C37.1424226,239.187447 39.9467427,236.382561 39.9467427,232.92256 C39.9467427,230.969247 39.0529878,229.224724 37.6521925,228.075784 C38.5628741,226.823935 39.3203834,225.428768 39.8876749,223.907209 C52.5031631,190.070619 83.0318804,171.993249 128.249878,167.019439 C162.526554,163.249133 202.464115,167.718325 233.254295,175.922259 C242.539636,178.396304 252.072152,172.873128 254.545764,163.585899 C257.019377,154.29867 251.49738,144.764273 242.212039,142.290227 C227.875359,138.47027 210.118773,135.098354 191.794114,133.047742 C168.646148,130.457381 145.832009,130.070734 124.446183,132.423094 C98.4958601,135.277532 75.4292721,142.069181 56.1285927,153.497946 C33.4960979,166.899623 16.7709215,186.298455 7.28304261,211.746338 C5.85521636,215.575977 5.86233021,219.589581 7.03459327,223.196366 C6.87164873,223.183655 6.7069538,223.17718 6.54074687,223.17718 C3.08144273,223.17718 0.277122642,225.982065 0.277122642,229.442067 C0.277122642,232.902068 3.08144273,235.706954 6.54074687,235.706954 C9.36319361,235.706954 11.749622,233.839761 12.5326438,231.272999 Z" id="Combined-Shape" fill="url(#linearGradient-1)" fill-rule="nonzero" opacity="0.410043025"></path>
                        <path d="M453.525545,48.5749628 C453.281732,47.6443258 452.96091,46.7327236 452.565,45.8506048 C454.673376,44.8421839 456.129775,42.6889514 456.129775,40.1954901 C456.129775,36.7354886 453.325454,33.9306032 449.86615,33.9306032 C447.437521,33.9306032 445.331723,35.313087 444.292498,37.3341637 C443.258686,36.8308214 442.192176,36.4385561 441.108539,36.154507 C441.370972,35.4633914 441.514651,34.7137797 441.514651,33.9306032 C441.514651,30.4706017 438.710331,27.6657163 435.251027,27.6657163 C431.791723,27.6657163 428.987403,30.4706017 428.987403,33.9306032 C428.987403,35.0514773 429.281702,36.1036003 429.797229,37.0138864 C426.895185,38.2639585 424.29836,40.3194421 422.372332,43.1131654 C402.044381,72.5990707 384.906295,87.8068122 359.32545,97.2405437 C329.77556,108.137984 287.13007,111.359452 220.301558,107.076362 C210.711947,106.461756 202.440425,113.738874 201.826597,123.33026 C201.212769,132.921645 208.489079,141.195235 218.078691,141.809841 C289.333054,146.376587 336.297326,142.828876 371.365671,129.896334 C404.55624,117.65628 426.953256,97.7819461 451.020532,62.8721121 C452.28634,61.0360447 453.151178,59.0424572 453.634119,56.9951465 C454.777587,58.222563 456.407996,58.990151 458.217649,58.990151 C461.676953,58.990151 464.481274,56.1852656 464.481274,52.725264 C464.481274,49.2652625 461.676953,46.4603771 458.217649,46.4603771 C456.349921,46.4603771 454.673126,47.2780224 453.525545,48.5749628 Z" id="Combined-Shape" fill="url(#linearGradient-2)" fill-rule="nonzero" opacity="0.410043025"></path>
                        <path d="M268.872079,118.912203 C301.188672,123.768207 325.445042,121.557268 344.850699,112.615422 C353.407741,108.67246 360.900692,103.499937 368.028591,96.9221082 C373.448385,91.9205665 377.963106,86.8951141 384.879367,78.5366358 C385.321444,78.0023756 385.773282,77.4550517 386.366495,76.7355503 C386.381126,76.7178045 387.515414,75.3416807 387.840866,74.9471391 C389.031887,73.5032771 389.905145,72.4494363 390.767715,71.417336 C403.834333,55.7826002 413.315018,47.4485283 427.441055,40.9745938 C433.990669,37.9729188 436.866302,30.2312473 433.86396,23.6830865 C430.861619,17.1349257 423.11823,14.2599309 416.568616,17.2616059 C398.22006,25.6707127 386.082107,36.3406769 370.745602,54.6914239 C369.84044,55.7744866 368.935201,56.8669235 367.711663,58.3502045 C367.382554,58.7491795 366.245173,60.1290561 366.233269,60.1434946 C365.649001,60.8521452 365.206085,61.3886619 364.775527,61.9090021 C352.189312,77.1197649 344.849696,83.892973 333.929563,88.9248124 C319.621752,95.5176449 300.394443,97.2701908 272.749991,93.1162391 C265.625051,92.0456209 258.981047,96.9523365 257.910191,104.075695 C256.839335,111.199054 261.747139,117.841585 268.872079,118.912203 Z" id="Path-3-Copy" fill="#FF1A5D" fill-rule="nonzero" transform="translate(346.408629, 68.750334) rotate(-11.000000) translate(-346.408629, -68.750334) "></path>
                        <g id="Oval-5-Copy" transform="translate(237.512060, 106.654792) rotate(-7.000000) translate(-237.512060, -106.654792) translate(43.012060, 35.154792)">
                            <mask id="mask-5" fill="white">
                                <use xlink:href="#path-4"></use>
                            </mask>
                            <use id="Combined-Shape" fill="url(#linearGradient-3)" xlink:href="#path-4"></use>
                            <ellipse id="Oval-5" fill="#000000" mask="url(#mask-5)" cx="54.3014834" cy="42.3354327" rx="5.21829596" ry="5.2171382"></ellipse>
                            <path d="M18.1839614,95.1549956 C25.871304,95.1549956 33.1846727,88.8971563 34.8414724,83.1128263 C36.4982721,77.3284963 35.2917456,71.9390372 27.604403,71.9390372 C19.9170605,71.9390372 7.40058013,78.043078 7.40058013,85.7319702 C7.40058013,93.4208625 10.4966189,95.1549956 18.1839614,95.1549956 Z" id="Oval-5-Copy-2" fill="#FFFFFF" mask="url(#mask-5)"></path>
                            <path d="M3.13699968,64.2182013 C7.54473525,60.6884081 9.74860303,57.7061035 9.74860303,55.2712876 C9.74860303,51.6190638 6.78848738,50.9923289 3.13699968,50.9923289 C-0.514488021,50.9923289 -3.47460367,51.6190638 -3.47460367,55.2712876 C-3.47460367,57.7061035 -1.27073589,60.6884081 3.13699968,64.2182013 Z" fill="#000000" mask="url(#mask-5)"></path>
                        </g>
                        <path d="M489.726222,98.0846347 C489.144506,101.108498 487.752907,104.016104 485.534543,106.464652 C437.66989,159.295887 397.074826,190.41885 349.667751,196.725685 C334.587514,198.731895 318.920431,199.015876 299.451627,197.989477 C287.915757,197.381304 242.152019,193.647709 245.710665,193.914282 C231.534625,192.852376 219.329701,192.170747 206.983023,191.82585 C136.865242,189.867147 99.1139925,198.324094 89.2411234,227.993026 C88.6445238,229.785866 87.7844411,231.416846 86.7182522,232.857243 C89.4358571,233.541629 91.447653,236.00224 91.447653,238.932826 C91.447653,242.392828 88.6433329,245.197713 85.1840288,245.197713 C81.7247247,245.197713 78.9204046,242.392828 78.9204046,238.932826 C78.9204046,238.875402 78.921177,238.818159 78.9227121,238.761105 C78.4357113,238.946827 77.9399985,239.110926 77.4370833,239.252647 C77.4971745,239.6011 77.5284881,239.959404 77.5284881,240.325023 C77.5284881,243.785025 74.724168,246.58991 71.2648639,246.58991 C67.8055597,246.58991 65.0012396,243.785025 65.0012396,240.325023 C65.0012396,239.600131 65.1243295,238.903993 65.3507442,238.25638 C64.745946,237.973883 64.1637045,237.659604 63.6053811,237.316262 C63.6080018,237.390728 63.6093231,237.465524 63.6093231,237.540629 C63.6093231,241.000631 60.8050031,243.805516 57.3456989,243.805516 C53.8863948,243.805516 51.0820747,241.000631 51.0820747,237.540629 C51.0820747,234.080628 53.8863948,231.275742 57.3456989,231.275742 C57.4701347,231.275742 57.5937231,231.279372 57.7163638,231.28653 C55.2759498,227.112482 54.5771232,221.948063 56.2237289,216.999853 C64.3726463,192.511564 82.5820066,174.509604 109.529726,163.503887 C134.53535,153.291341 167.283741,148.93766 207.952142,150.073709 C220.901596,150.435445 233.628773,151.146241 248.307191,152.245779 C245.242544,152.016211 290.331849,155.694783 301.280918,156.27202 C318.781706,157.194665 332.422128,156.947419 345.07733,155.263825 C383.588723,150.140433 417.043524,130.228382 459.747873,83.0928998 C461.80325,80.8242507 464.320429,79.2233477 467.026804,78.3036034 C465.482662,77.1626113 464.481274,75.3289584 464.481274,73.2613715 C464.481274,69.80137 467.285594,66.9964846 470.744898,66.9964846 C474.204202,66.9964846 477.008522,69.80137 477.008522,73.2613715 C477.008522,74.9338444 476.353293,76.4532495 475.285581,77.5767915 C476.603128,77.7782406 477.903503,78.1317774 479.15876,78.638777 C479.589714,75.5990718 482.201923,73.2613715 485.360021,73.2613715 C488.819325,73.2613715 491.623645,76.066257 491.623645,79.5262585 C491.623645,82.2919008 489.831938,84.6389831 487.346173,85.4696352 C487.894633,86.3351963 488.359987,87.2399914 488.741657,88.1722324 C489.860839,87.1269573 491.363509,86.487244 493.015562,86.487244 C496.474866,86.487244 499.279186,89.2921294 499.279186,92.7521309 C499.279186,96.2121324 496.474866,99.0170179 493.015562,99.0170179 C491.809044,99.0170179 490.682202,98.6758213 489.726222,98.0846347 Z" id="Combined-Shape" fill="url(#linearGradient-6)" fill-rule="nonzero"></path>
                    </g>
                </g>
            </g>
        </g>
    </g>
</svg>